# xmcd CD database file
#
# Track frame offsets:
#	150
#	25432
#	49639
#	74870
#	118110
#	142972
#	169347
#	193657
#	240332
#	264607
#
# Disc length: 3965 seconds
#
# Revision: 1
# Processed by: cddbd v1.5.1PL2 Copyright (c) Steve Scherf et al.
# Submitted via: CDex 1.51
#
DISCID=950f7b0a
DTITLE=NAU Jazz Ensemble - Vintage Year
DYEAR=1996
DGENRE=Jazz
TTITLE0=Stumblin and Shufflin
TTITLE1=Bluesette
TTITLE2=For No One in Particular
TTITLE3=Fingers
TTITLE4=Mira, Mira
TTITLE5=Kids are Pretty People
TTITLE6=The Cheese That Time Forgot
TTITLE7=Peep
TTITLE8=Blues for Red
TTITLE9=Catch the Rebop Trane
EXTD=YEAR: 1996
EXTT0=
EXTT1=
EXTT2=
EXTT3=
EXTT4=
EXTT5=
EXTT6=
EXTT7=
EXTT8=
EXTT9=
PLAYORDER=
